<?xml version="1.0" encoding="UTF-8" standalone="no"?><!DOCTYPE svg PUBLIC "-//W3C//DTD SVG 1.1//EN" "http://www.w3.org/Graphics/SVG/1.1/DTD/svg11.dtd"><svg width="100%" height="100%" viewBox="0 0 1000 1000" version="1.1" xmlns="http://www.w3.org/2000/svg" xmlns:xlink="http://www.w3.org/1999/xlink" xml:space="preserve" xmlns:serif="http://www.serif.com/" style="fill-rule:evenodd;clip-rule:evenodd;stroke-linejoin:round;stroke-miterlimit:2;"><rect id="Artboard1" x="0" y="0" width="1000" height="1000" style="fill:none;"/><g id="Artboard11" serif:id="Artboard1"><g id="person-outline.svg"><g><rect x="270.092" y="270.092" width="459.817" height="459.817" style="fill-opacity:0;"/><path d="M500,480.841c42.041,-0 76.636,-34.595 76.636,-76.636c0,-42.041 -34.595,-76.636 -76.636,-76.636c-42.041,-0 -76.636,34.595 -76.636,76.636c-0,42.041 34.595,76.636 76.636,76.636Zm0,-114.954c21.021,-0 38.318,17.297 38.318,38.318c0,21.021 -17.297,38.318 -38.318,38.318c-21.021,-0 -38.318,-17.297 -38.318,-38.318c-0,-21.021 17.297,-38.318 38.318,-38.318Z" style="fill-rule:nonzero;"/><path d="M500,519.159c-73.572,0 -134.113,60.541 -134.113,134.113c-0,10.511 8.648,19.159 19.159,19.159c10.51,0 19.159,-8.648 19.159,-19.159c-0,-52.551 43.243,-95.795 95.795,-95.795c52.552,0 95.795,43.244 95.795,95.795c0,10.511 8.649,19.159 19.159,19.159c10.511,0 19.159,-8.648 19.159,-19.159c0,-73.572 -60.541,-134.113 -134.113,-134.113Z" style="fill-rule:nonzero;"/></g></g></g></svg>