<?xml version="1.0" encoding="UTF-8" standalone="no"?>
<!DOCTYPE svg PUBLIC "-//W3C//DTD SVG 1.1//EN" "http://www.w3.org/Graphics/SVG/1.1/DTD/svg11.dtd">
<svg xmlns="http://www.w3.org/2000/svg" width="140" height="44">
						<g fill="none" fill-rule="evenodd">
							<path fill="#1B1C20" d="M1.41 24.945c9.118-7.455 20.058-11.684 32.207-11.846l15.24-.183c25.164-20.969 44.885-13.024 72.014.01 5.674 1.896 11.354 2.82 17.034 3.275v3.446a117.923 117.923 0 0 1-12.43-2.357c-9.81-2.333-19.356-1.613-28.814 0 5.053-1.9 11.564-3.819 17.065-4.229C89.131 2.721 72.98-3.562 50.571 15.446H32.934c-13.6 0-23.863 4.457-31.537 9.478l.014.02z"></path>
							<path fill="#E50004" fill-rule="nonzero" d="M122.385 35.368v-3.087c-.013-.387.135-.76.408-1.03.273-.27.646-.412 1.026-.39h7.973c1.232.007 2.225 1.025 2.218 2.273-.007 1.249-1.01 2.255-2.242 2.248l-9.383-.014zm-41.119-2.062h5.828c-1.26-3.24-4.921-5.529-8.781-5.536-2.1 0-5.884-.12-8.344 0-2.877.142-4.687.81-6.458 2.374a7.571 7.571 0 0 0-2.684 5.678c0 4.426 3.885 7.9 9.033 8.08 3.531.129 3.91.132 8.543 0 4.288-.13 7.35-2.1 8.688-5.528h-5.828a.548.548 0 0 0-.504.294 6.045 6.045 0 0 1-5.212 2.981h-2.705c-3.031-.024-6.034-2.186-6.034-5.834 0-3.577 3.08-5.76 6.048-5.76.35 0 1.533-.056 2.625 0a6.169 6.169 0 0 1 5.285 2.957c.105.179.295.288.5.287v.007zM0 35.553c0 4.414 4.098 7.999 9.135 7.999.035 0 4.225.092 8.354 0 5.037 0 9.139-3.581 9.153-7.985v-7.453h-5.95v7.453c0 3.584-3.133 5.802-6.034 5.802 0 0-1.508.04-2.646 0-2.898 0-6.034-2.218-6.034-5.802v-.025H5.95V28.09H0v7.462zm28.808 7.452c.004.33.267.596.592.6h5.407v-6.388H46.11c1.819.02 3.297 1.493 3.35 3.336V43.6h5.41a.606.606 0 0 0 .592-.592V28.707a.596.596 0 0 0-.584-.586H50.05a.602.602 0 0 0-.591.586v5.799H34.806v-5.799a.602.602 0 0 0-.591-.586H29.4a.596.596 0 0 0-.584.586v14.305l-.008-.007zm80.123-4.911H94.15v4.9a.61.61 0 0 1-.186.434.594.594 0 0 1-.437.166h-5.152v-7.57c0-4.428 3.913-7.899 8.904-7.899h8.508c4.991 0 8.904 3.47 8.904 7.9V43.6h-5.141a.594.594 0 0 1-.437-.166.61.61 0 0 1-.186-.434v-4.9l.003-.007zM94.15 35.389h14.798c-.28-2.228-1.568-4.535-4.102-4.535h-6.608c-2.534 0-3.826 2.307-4.106 4.535h.018zm39.9 8.223H140c-.157-4.01-4.428-5.678-4.428-5.678 2.678-.618 4.428-2.57 4.428-4.83 0-2.395-2.317-4.968-6.059-4.968h-14.42a3.058 3.058 0 0 0-2.215.913 3.146 3.146 0 0 0-.903 2.245v11.732a.572.572 0 0 0 .158.42.556.556 0 0 0 .409.173h5.418v-5.508h5.103c4.54 0 6.408 3.311 6.559 5.494v.007z"></path>
						</g>
					</svg>
