<?xml version="1.0" encoding="UTF-8" standalone="no"?>
<!DOCTYPE svg PUBLIC "-//W3C//DTD SVG 1.1//EN" "http://www.w3.org/Graphics/SVG/1.1/DTD/svg11.dtd">
<svg width="100%" height="100%" viewBox="0 0 807 170" version="1.1" xmlns="http://www.w3.org/2000/svg" xmlns:xlink="http://www.w3.org/1999/xlink" xml:space="preserve" xmlns:serif="http://www.serif.com/" style="fill-rule:evenodd;clip-rule:evenodd;stroke-linejoin:round;stroke-miterlimit:2;">
    <g transform="matrix(1,0,0,1,-190,-779)">
        <g transform="matrix(1,0,0,1,1.13576e-13,631.125)">
            <g transform="matrix(1.56261,0,0,1.56261,204.716,218.837)">
                <path d="M0,35.173C0.682,34.048 2.246,33.886 3.155,34.836C6.083,37.892 8.976,40.244 11.834,41.897C15.27,43.883 18.695,44.876 22.112,44.876C25.29,44.876 27.901,44.022 29.947,42.314C31.992,40.607 33.016,38.441 33.016,35.819C33.016,32.92 32.132,30.686 30.364,29.116C28.597,27.547 24.594,25.929 18.358,24.26C9.817,21.957 3.78,18.957 0.245,15.263C-3.29,11.569 -5.058,6.505 -5.058,0.069C-5.058,-8.272 -2.268,-15.074 3.313,-20.338C8.895,-25.6 16.134,-28.232 25.032,-28.232C29.838,-28.232 34.396,-27.586 38.706,-26.296C43.016,-25.005 47.097,-23.049 50.95,-20.427L44.153,-4.822L35.19,-8.54C32.351,-9.711 29.539,-10.298 26.76,-10.298C23.899,-10.298 21.576,-9.612 19.788,-8.242C18.001,-6.872 17.107,-5.114 17.107,-2.969C17.107,-0.784 17.892,0.963 19.461,2.275C21.029,3.585 24.058,4.836 28.547,6.027L29.619,6.325C39.312,8.947 45.687,11.828 48.745,14.965C50.811,17.111 52.38,19.683 53.452,22.681C54.525,25.681 55.062,29.007 55.062,32.661C55.062,41.917 52.022,49.355 45.945,54.975C39.868,60.596 31.765,63.405 21.636,63.405C15.559,63.405 10.026,62.372 5.042,60.308C0.057,58.242 -4.74,55.005 -9.348,50.596L0,35.173Z" style="fill:white;fill-rule:nonzero;"/>
            </g>
            <g transform="matrix(1.56261,0,0,1.56261,339.068,177.98)">
                <path d="M0,87.229L0,20.616L-24.543,20.616L-24.543,10C-24.543,4.478 -20.065,0 -14.543,0L48.316,0L48.316,10.616C48.316,16.138 43.84,20.616 38.316,20.616L23.773,20.616L23.773,87.229L0,87.229Z" style="fill:white;fill-rule:nonzero;"/>
            </g>
            <g transform="matrix(1.56261,0,0,1.56261,431.886,317.915)">
                <path d="M0,-89.552L23.714,-89.552L23.714,-47.129C23.714,-40.893 23.872,-36.414 24.19,-33.694C24.508,-30.973 25.044,-28.698 25.799,-26.871C26.712,-24.647 28.302,-22.948 30.565,-21.778C32.83,-20.605 35.59,-20.02 38.848,-20.02C42.104,-20.02 44.855,-20.605 47.1,-21.778C49.344,-22.948 50.942,-24.647 51.896,-26.871C52.65,-28.698 53.187,-30.973 53.505,-33.694C53.822,-36.414 53.981,-40.893 53.981,-47.129L53.981,-89.552L77.636,-89.552L77.636,-43.436C77.636,-33.863 77.06,-26.802 75.908,-22.254C74.755,-17.705 72.81,-13.823 70.068,-10.606C67.09,-7.07 62.998,-4.418 57.795,-2.652C52.591,-0.884 46.274,0 38.848,0C31.379,0 25.054,-0.884 19.87,-2.652C14.687,-4.418 10.585,-7.07 7.566,-10.606C4.865,-13.823 2.929,-17.705 1.757,-22.254C0.585,-26.802 0,-33.863 0,-43.436L0,-89.552Z" style="fill:white;fill-rule:nonzero;"/>
            </g>
            <g transform="matrix(1.56261,0,0,1.56261,618.187,208.518)">
                <path d="M0,48.143L3.992,48.143C13.325,48.143 20.139,46.227 24.429,42.393C28.719,38.56 30.863,32.473 30.863,24.131C30.863,15.789 28.719,9.673 24.429,5.78C20.139,1.887 13.325,-0.059 3.992,-0.059L0,-0.059L0,48.143ZM-23.535,57.686L-23.535,-19.543L-5.362,-19.543C8.182,-19.543 17.765,-18.907 23.386,-17.636C29.006,-16.365 33.941,-14.24 38.192,-11.261C43.713,-7.408 47.904,-2.472 50.764,3.545C53.624,9.563 55.054,16.425 55.054,24.131C55.054,31.837 53.624,38.699 50.764,44.717C47.904,50.735 43.713,55.67 38.192,59.523C33.981,62.463 29.175,64.558 23.773,65.809C18.371,67.06 9.989,67.686 -1.371,67.686L-13.535,67.686C-19.058,67.686 -23.535,63.208 -23.535,57.686" style="fill:white;fill-rule:nonzero;"/>
            </g>
            <g transform="matrix(1.56261,0,0,1.56261,728.423,177.98)">
                <path d="M0,87.229L0,10C0,4.478 4.478,0 10,0L24.012,0L24.012,77.229C24.012,82.751 19.535,87.229 14.012,87.229L0,87.229Z" style="fill:white;fill-rule:nonzero;"/>
            </g>
            <g transform="matrix(1.56261,0,0,1.56261,996.736,317.913)">
                <path d="M0,-108.699L0,-108.34C0,-97.389 -4.76,-86.889 -17.319,-86.889L-57.588,-86.889C-59.545,-86.889 -60.344,-84.36 -58.729,-83.255C-56.51,-81.734 -54.426,-80.018 -52.479,-78.109C-48.12,-73.819 -44.77,-68.92 -42.449,-63.389C-40.12,-57.87 -38.96,-51.989 -38.96,-45.76C-38.96,-39.479 -40.109,-33.599 -42.42,-28.12C-44.72,-22.639 -48.08,-17.729 -52.479,-13.399C-56.93,-9.109 -62.02,-5.809 -67.739,-3.479C-73.46,-1.16 -79.399,0 -85.55,0C-91.79,0 -97.76,-1.16 -103.46,-3.479C-109.159,-5.809 -114.17,-9.109 -118.5,-13.399C-122.989,-17.729 -126.399,-22.659 -128.72,-28.179C-131.04,-33.699 -132.21,-39.559 -132.21,-45.76C-132.21,-51.989 -131.04,-57.859 -128.72,-63.359C-126.399,-68.87 -122.989,-73.779 -118.5,-78.109C-114.17,-82.399 -109.159,-85.71 -103.46,-88.029C-99.47,-89.659 -95.35,-90.72 -91.09,-91.199L-91.09,-74.421C-91.09,-72.404 -92.254,-70.528 -94.116,-69.755C-97.035,-68.544 -99.63,-66.652 -101.909,-64.08C-106.22,-59.21 -108.37,-53.109 -108.37,-45.76C-108.37,-38.29 -106.25,-32.149 -102,-27.349C-97.75,-22.54 -92.27,-20.139 -85.55,-20.139C-78.96,-20.139 -73.51,-22.559 -69.199,-27.409C-64.89,-32.25 -62.729,-38.37 -62.729,-45.76C-62.729,-53.069 -64.92,-59.159 -69.29,-64.05C-71.563,-66.591 -74.118,-68.47 -76.959,-69.689C-78.803,-70.481 -80.01,-72.276 -80.01,-74.283L-80.01,-94.96C-79.989,-102.989 -76.92,-108.699 -66.46,-108.699L0,-108.699Z" style="fill:white;fill-rule:nonzero;"/>
            </g>
        </g>
    </g>
</svg>
